<svg width="57" height="16" viewBox="0 0 57 16" fill="none" xmlns="http://www.w3.org/2000/svg">
<path d="M2.47905 15L3.94212 10.8807H9.8228L11.2859 15H13.1325L7.79155 0.454545H5.97337L0.632457 15H2.47905ZM4.49609 9.31818L6.82564 2.75568H6.93928L9.26882 9.31818H4.49609ZM15.3981 15H17.0174V13.3239H17.2163C17.5856 13.9205 18.2958 15.2273 20.3981 15.2273C23.1254 15.2273 25.0288 13.0398 25.0288 9.57386C25.0288 6.13636 23.1254 3.94886 20.3697 3.94886C18.239 3.94886 17.5856 5.25568 17.2163 5.82386H17.0742V0.454545H15.3981V15ZM17.0458 9.54545C17.0458 7.10227 18.1254 5.45455 20.1708 5.45455C22.3015 5.45455 23.3526 7.24432 23.3526 9.54545C23.3526 11.875 22.2731 13.7216 20.1708 13.7216C18.1538 13.7216 17.0458 12.017 17.0458 9.54545ZM32.0245 15.2273C34.979 15.2273 36.9677 12.983 36.9677 9.60227C36.9677 6.19318 34.979 3.94886 32.0245 3.94886C29.07 3.94886 27.0813 6.19318 27.0813 9.60227C27.0813 12.983 29.07 15.2273 32.0245 15.2273ZM32.0245 13.7216C29.7802 13.7216 28.7575 11.7898 28.7575 9.60227C28.7575 7.41477 29.7802 5.45455 32.0245 5.45455C34.2688 5.45455 35.2915 7.41477 35.2915 9.60227C35.2915 11.7898 34.2688 13.7216 32.0245 13.7216ZM46.4013 10.5398C46.4013 12.5852 44.8388 13.5227 43.5888 13.5227C42.1967 13.5227 41.2024 12.5 41.2024 10.9091V4.09091H39.5263V11.0227C39.5263 13.8068 41.0036 15.142 43.049 15.142C44.6967 15.142 45.7763 14.2614 46.2876 13.1534H46.4013V15H48.0774V4.09091H46.4013V10.5398ZM55.8917 4.09091H53.5621V1.47727H51.886V4.09091H50.2383V5.51136H51.886V12.3295C51.886 14.233 53.4201 15.142 54.8406 15.142C55.4656 15.142 55.8633 15.0284 56.0906 14.9432L55.7496 13.4375C55.6076 13.4659 55.3803 13.5227 55.011 13.5227C54.2724 13.5227 53.5621 13.2955 53.5621 11.875V5.51136H55.8917V4.09091Z" fill="#2F2E2E"/>
</svg>
