<svg width="74" height="16" viewBox="0 0 74 16" fill="none" xmlns="http://www.w3.org/2000/svg">
<path d="M12.8878 5C12.348 2.01705 9.96165 0.255681 7.03551 0.255681C3.31392 0.255681 0.615057 3.125 0.615057 7.72727C0.615057 12.3295 3.31392 15.1989 7.03551 15.1989C9.96165 15.1989 12.348 13.4375 12.8878 10.4545H11.1264C10.7003 12.4716 8.96733 13.5511 7.03551 13.5511C4.39347 13.5511 2.3196 11.5057 2.3196 7.72727C2.3196 3.94886 4.39347 1.90341 7.03551 1.90341C8.96733 1.90341 10.7003 2.98295 11.1264 5H12.8878ZM19.9386 15.2273C22.8931 15.2273 24.8817 12.983 24.8817 9.60227C24.8817 6.19318 22.8931 3.94886 19.9386 3.94886C16.984 3.94886 14.9954 6.19318 14.9954 9.60227C14.9954 12.983 16.984 15.2273 19.9386 15.2273ZM19.9386 13.7216C17.6942 13.7216 16.6715 11.7898 16.6715 9.60227C16.6715 7.41477 17.6942 5.45455 19.9386 5.45455C22.1829 5.45455 23.2056 7.41477 23.2056 9.60227C23.2056 11.7898 22.1829 13.7216 19.9386 13.7216ZM29.1165 8.4375C29.1165 6.53409 30.2955 5.45455 31.9006 5.45455C33.456 5.45455 34.4006 6.47017 34.4006 8.18182V15H36.0767V8.06818C36.0767 5.28409 34.5923 3.94886 32.3835 3.94886C30.7358 3.94886 29.7131 4.6875 29.2017 5.79545H29.0597V4.09091H27.4403V15H29.1165V8.4375ZM43.8839 4.09091H41.5543V1.47727H39.8782V4.09091H38.2305V5.51136H39.8782V12.3295C39.8782 14.233 41.4123 15.142 42.8327 15.142C43.4577 15.142 43.8555 15.0284 44.0827 14.9432L43.7418 13.4375C43.5998 13.4659 43.3725 13.5227 43.0032 13.5227C42.2646 13.5227 41.5543 13.2955 41.5543 11.875V5.51136H43.8839V4.09091ZM49.6154 15.2557C51.5188 15.2557 52.5131 14.233 52.854 13.5227H52.9393V15H54.6154V7.8125C54.6154 4.34659 51.9734 3.94886 50.5813 3.94886C48.9336 3.94886 47.0586 4.51705 46.2063 6.50568L47.7972 7.07386C48.1665 6.27841 49.0401 5.42614 50.6381 5.42614C52.1793 5.42614 52.9393 6.2429 52.9393 7.64205V7.69886C52.9393 8.50852 52.1154 8.4375 50.1268 8.69318C48.1026 8.95597 45.8938 9.40341 45.8938 11.9034C45.8938 14.0341 47.5415 15.2557 49.6154 15.2557ZM49.8711 13.75C48.5359 13.75 47.57 13.1534 47.57 11.9886C47.57 10.7102 48.7347 10.3125 50.0415 10.142C50.7518 10.0568 52.6552 9.85795 52.9393 9.51705V11.0511C52.9393 12.4148 51.8597 13.75 49.8711 13.75ZM62.1065 15.2273C64.5213 15.2273 66.1122 13.75 66.3963 11.8182H64.7202C64.4077 13.0114 63.4134 13.7216 62.1065 13.7216C60.1179 13.7216 58.8395 12.0739 58.8395 9.54545C58.8395 7.07386 60.1463 5.45455 62.1065 5.45455C63.5838 5.45455 64.4645 6.36364 64.7202 7.35795H66.3963C66.1122 5.3125 64.3793 3.94886 62.0781 3.94886C59.1236 3.94886 57.1634 6.27841 57.1634 9.60227C57.1634 12.8693 59.0384 15.2273 62.1065 15.2273ZM73.5909 4.09091H71.2614V1.47727H69.5852V4.09091H67.9375V5.51136H69.5852V12.3295C69.5852 14.233 71.1193 15.142 72.5398 15.142C73.1648 15.142 73.5625 15.0284 73.7898 14.9432L73.4489 13.4375C73.3068 13.4659 73.0795 13.5227 72.7102 13.5227C71.9716 13.5227 71.2614 13.2955 71.2614 11.875V5.51136H73.5909V4.09091Z" fill="#2F2E2E"/>
</svg>
