<svg width="56" height="16" viewBox="0 0 56 16" fill="none" xmlns="http://www.w3.org/2000/svg">
<path d="M0.572798 15H3.64808V8.99148H9.89098V15H12.9592V0.454545H9.89098V6.45597H3.64808V0.454545H0.572798V15ZM20.3668 15.2131C23.6765 15.2131 25.7362 12.9474 25.7362 9.58807C25.7362 6.20739 23.6765 3.94886 20.3668 3.94886C17.0572 3.94886 14.9975 6.20739 14.9975 9.58807C14.9975 12.9474 17.0572 15.2131 20.3668 15.2131ZM20.381 12.8693C18.854 12.8693 18.0728 11.4702 18.0728 9.56676C18.0728 7.66335 18.854 6.2571 20.381 6.2571C21.8796 6.2571 22.6609 7.66335 22.6609 9.56676C22.6609 11.4702 21.8796 12.8693 20.381 12.8693ZM27.7035 15H30.729V8.4517C30.729 7.24432 31.4961 6.44176 32.5046 6.44176C33.4989 6.44176 34.1665 7.12358 34.1665 8.19602V15H37.0998V8.33807C37.0998 7.20881 37.7461 6.44176 38.8469 6.44176C39.8129 6.44176 40.5373 7.04545 40.5373 8.25994V15H43.5558V7.66335C43.5558 5.2983 42.1495 3.94886 40.1183 3.94886C38.5202 3.94886 37.2773 4.76562 36.8299 6.01562H36.7163C36.3683 4.75142 35.2532 3.94886 33.7546 3.94886C32.2844 3.94886 31.1694 4.73011 30.7148 6.01562H30.587V4.09091H27.7035V15ZM50.9173 15.2131C53.6161 15.2131 55.4343 13.8991 55.8604 11.875L53.0621 11.6903C52.7567 12.5213 51.9755 12.9545 50.967 12.9545C49.4542 12.9545 48.4954 11.9531 48.4954 10.3267V10.3196H55.9244V9.48864C55.9244 5.78125 53.68 3.94886 50.7965 3.94886C47.5863 3.94886 45.5053 6.22869 45.5053 9.59517C45.5053 13.054 47.5579 15.2131 50.9173 15.2131ZM48.4954 8.4446C48.5593 7.2017 49.5039 6.20739 50.8462 6.20739C52.1602 6.20739 53.0692 7.14489 53.0763 8.4446H48.4954Z" fill="#2F2E2E"/>
</svg>
