<svg width="75" height="20" viewBox="0 0 75 20" fill="none" xmlns="http://www.w3.org/2000/svg">
<path d="M0.853161 15H2.61452V9.6875H5.79634C9.18413 9.6875 10.7111 7.62784 10.7111 5.05682C10.7111 2.4858 9.18413 0.454545 5.76793 0.454545H0.853161V15ZM2.61452 8.125V2.01705H5.71112C8.07617 2.01705 8.97816 3.30966 8.97816 5.05682C8.97816 6.80398 8.07617 8.125 5.73952 8.125H2.61452ZM13.3212 15H14.9973V8.09659C14.9973 6.61932 16.1621 5.53977 17.753 5.53977C18.2005 5.53977 18.6621 5.625 18.7757 5.65341V3.94886C18.584 3.93466 18.1436 3.92045 17.8951 3.92045C16.5882 3.92045 15.4519 4.65909 15.0542 5.73864H14.9405V4.09091H13.3212V15ZM24.8624 15.2273C27.8169 15.2273 29.8056 12.983 29.8056 9.60227C29.8056 6.19318 27.8169 3.94886 24.8624 3.94886C21.9078 3.94886 19.9192 6.19318 19.9192 9.60227C19.9192 12.983 21.9078 15.2273 24.8624 15.2273ZM24.8624 13.7216C22.6181 13.7216 21.5953 11.7898 21.5953 9.60227C21.5953 7.41477 22.6181 5.45455 24.8624 5.45455C27.1067 5.45455 28.1294 7.41477 28.1294 9.60227C28.1294 11.7898 27.1067 13.7216 24.8624 13.7216ZM32.3642 4.09091V15.7955C32.3642 16.9034 31.9096 17.5284 30.8869 17.5284H30.5744V19.0909H30.9153C33.0176 19.0909 34.0403 17.8125 34.0403 15.7955V4.09091H32.3642ZM33.188 2.27273C33.8414 2.27273 34.3812 1.76136 34.3812 1.13636C34.3812 0.511364 33.8414 0 33.188 0C32.5346 0 31.9949 0.511364 31.9949 1.13636C31.9949 1.76136 32.5346 2.27273 33.188 2.27273ZM41.6841 15.2273C43.9 15.2273 45.5194 14.1193 46.0307 12.4716L44.4114 12.017C43.9853 13.1534 42.998 13.7216 41.6841 13.7216C39.7168 13.7216 38.3603 12.4503 38.2821 10.1136H46.2012V9.40341C46.2012 5.34091 43.7864 3.94886 41.5137 3.94886C38.5591 3.94886 36.5989 6.27841 36.5989 9.63068C36.5989 12.983 38.5307 15.2273 41.6841 15.2273ZM38.2821 8.66477C38.3958 6.96733 39.5961 5.45455 41.5137 5.45455C43.3319 5.45455 44.4966 6.81818 44.4966 8.66477H38.2821ZM53.1827 15.2273C55.5975 15.2273 57.1884 13.75 57.4725 11.8182H55.7963C55.4838 13.0114 54.4895 13.7216 53.1827 13.7216C51.1941 13.7216 49.9157 12.0739 49.9157 9.54545C49.9157 7.07386 51.2225 5.45455 53.1827 5.45455C54.66 5.45455 55.5407 6.36364 55.7963 7.35795H57.4725C57.1884 5.3125 55.4554 3.94886 53.1543 3.94886C50.1998 3.94886 48.2395 6.27841 48.2395 9.60227C48.2395 12.8693 50.1145 15.2273 53.1827 15.2273ZM64.6671 4.09091H62.3375V1.47727H60.6614V4.09091H59.0137V5.51136H60.6614V12.3295C60.6614 14.233 62.1955 15.142 63.6159 15.142C64.2409 15.142 64.6387 15.0284 64.8659 14.9432L64.525 13.4375C64.383 13.4659 64.1557 13.5227 63.7864 13.5227C63.0478 13.5227 62.3375 13.2955 62.3375 11.875V5.51136H64.6671V4.09091ZM74.7203 6.53409C74.1948 4.9858 73.0158 3.94886 70.8567 3.94886C68.5556 3.94886 66.851 5.25568 66.851 7.10227C66.851 8.60795 67.7459 9.61648 69.7488 10.0852L71.5669 10.5114C72.6678 10.767 73.1863 11.2926 73.1863 12.0455C73.1863 12.983 72.1919 13.75 70.6294 13.75C69.2587 13.75 68.3993 13.1605 68.101 11.9886L66.5101 12.3864C66.9007 14.2401 68.4277 15.2273 70.6578 15.2273C73.1934 15.2273 74.9192 13.8423 74.9192 11.9602C74.9192 10.4403 73.9675 9.48153 72.0215 9.00568L70.4022 8.60795C69.1096 8.28835 68.5272 7.85511 68.5272 7.01705C68.5272 6.07955 69.5215 5.39773 70.8567 5.39773C72.3198 5.39773 72.9235 6.20739 73.2147 6.96023L74.7203 6.53409Z" fill="#2F2E2E"/>
</svg>
